HIERARCHY
ROOT Hips
{
    OFFSET 0.000000 0.000000 0.000000
    CHANNELS 6 Xposition Yposition Zposition Zrotation Xrotation Yrotation
    JOINT Spine
    {
        OFFSET -0.000000 6.993131 0.000000
        CHANNELS 3 Zrotation Xrotation Yrotation
        JOINT Spine1
        {
            OFFSET -0.000000 20.649729 0.000000
            CHANNELS 3 Zrotation Xrotation Yrotation
            JOINT Neck
            {
                OFFSET -0.000000 20.564924 1.869539
                CHANNELS 3 Zrotation Xrotation Yrotation
                JOINT Head
                {
                    OFFSET -0.000000 11.939490 -1.705642
                    CHANNELS 3 Zrotation Xrotation Yrotation
                    End Site
                    {
                        OFFSET -0.000000 21.320518 0.000000
                    }
                }
            }
            JOINT LeftShoulder
            {
                OFFSET 3.446977 19.850397 -0.038759
                CHANNELS 3 Zrotation Xrotation Yrotation
                JOINT LeftArm
                {
                    OFFSET 7.083611 0.000000 0.000000
                    CHANNELS 3 Zrotation Xrotation Yrotation
                    JOINT LeftForeArm
                    {
                        OFFSET 32.044487 0.000000 0.000000
                        CHANNELS 3 Zrotation Xrotation Yrotation
                        JOINT LeftHand
                        {
                            OFFSET 22.068741 0.000000 0.000000
                            CHANNELS 3 Zrotation Xrotation Yrotation
                            End Site
                            {
                                OFFSET 12.792312 0.000000 0.000000
                            }
                        }
                    }
                }
            }
            JOINT RightShoulder
            {
                OFFSET -3.365844 19.850397 -0.038759
                CHANNELS 3 Zrotation Xrotation Yrotation
                JOINT RightArm
                {
                    OFFSET -7.083611 0.000000 0.000000
                    CHANNELS 3 Zrotation Xrotation Yrotation
                    JOINT RightForeArm
                    {
                        OFFSET -32.044487 0.000000 0.000000
                        CHANNELS 3 Zrotation Xrotation Yrotation
                        JOINT RightHand
                        {
                            OFFSET -22.068741 0.000000 0.000000
                            CHANNELS 3 Zrotation Xrotation Yrotation
                            End Site
                            {
                                OFFSET -12.792312 0.000000 0.000000
                            }
                        }
                    }
                }
            }
        }
    }
    JOINT LeftUpLeg
    {
        OFFSET 8.528208 0.000000 0.000000
        CHANNELS 3 Zrotation Xrotation Yrotation
        JOINT LeftLeg
        {
            OFFSET -0.000000 -31.874865 0.000000
            CHANNELS 3 Zrotation Xrotation Yrotation
            JOINT LeftFoot
            {
                OFFSET -0.000000 -38.221939 0.000000
                CHANNELS 3 Zrotation Xrotation Yrotation
                JOINT LeftToeBase
                {
                    OFFSET -0.000000 -5.543335 12.792312
                    CHANNELS 3 Zrotation Xrotation Yrotation
                    End Site
                    {
                        OFFSET -0.000000 0.000000 3.411283
                    }
                }
            }
        }
    }
    JOINT RightUpLeg
    {
        OFFSET -8.528208 0.000000 0.000000
        CHANNELS 3 Zrotation Xrotation Yrotation
        JOINT RightLeg
        {
            OFFSET -0.000000 -31.874865 0.000000
            CHANNELS 3 Zrotation Xrotation Yrotation
            JOINT RightFoot
            {
                OFFSET -0.000000 -38.221939 0.000000
                CHANNELS 3 Zrotation Xrotation Yrotation
                JOINT RightToeBase
                {
                    OFFSET -0.000000 -5.543335 12.792312
                    CHANNELS 3 Zrotation Xrotation Yrotation
                    End Site
                    {
                        OFFSET -0.000000 0.000000 3.411283
                    }
                }
            }
        }
    }
}
MOTION
Frames:    9
Frame Time:    0.008333
29.743940    75.853310    24.989567    -1.449764    1.385188    88.482956    -4.446919    -7.066170    3.989457    -0.079849    4.747355    4.267505    12.555242    7.021987    0.729498    -8.333745    2.937422    -1.301718    32.033878    -4.057656    2.012896    -30.671417    -7.619524    -14.318674    1.727084    4.594308    2.233186    -8.937057    4.782559    -2.847937    -11.876220    -1.870979    -11.136563    9.144688    -2.821812    3.295434    -4.540469    6.460715    1.531562    7.496385    6.237882    -4.347015    -2.687938    0.750195    0.267389    2.396042    2.486603    3.918707    -0.483074    -8.115635    2.572770    0.000000    0.000000    0.000000    -13.238120    3.969977    -0.837053    12.134426    -3.948161    -1.619115    -3.470807    -0.939402    -8.479558    0.000000    0.000000    0.000000    
29.740419    75.853027    24.990501    -1.447969    1.374232    88.485558    -4.431781    -7.057855    3.986548    -0.099859    4.745646    4.264165    12.480940    6.995564    0.712786    -8.207093    2.963297    -1.298892    32.044750    -4.046712    1.992154    -30.674450    -7.665260    -14.294468    1.695454    4.610011    2.288945    -8.896697    4.795645    -2.829844    -11.880876    -1.875804    -11.129842    9.151370    -2.814050    3.290063    -4.526402    6.427201    1.527691    7.354834    6.203880    -4.432861    -2.675852    0.749129    0.249931    2.393247    2.482464    3.959434    -0.489093    -8.120231    2.549735    0.000000    0.000000    0.000000    -13.229203    3.966145    -0.847564    12.142939    -3.939134    -1.613082    -3.456152    -0.934539    -8.482895    0.000000    0.000000    0.000000    
29.733643    75.852142    24.989912    -1.460614    1.371304    88.485626    -4.444831    -7.066003    3.986169    -0.082121    4.749996    4.264176    12.514419    6.967499    0.729530    -8.276482    2.995807    -1.293270    32.035378    -4.046151    2.002835    -30.673691    -7.649775    -14.300455    1.710065    4.585887    2.306796    -9.026487    4.769246    -2.767017    -11.889109    -1.881199    -11.116740    9.140924    -2.804814    3.262130    -4.519036    6.425203    1.521728    7.310341    6.202840    -4.439702    -2.677156    0.729415    0.268935    2.394817    2.481564    3.995789    -0.492012    -8.122922    2.506561    0.000000    0.000000    0.000000    -13.222597    3.934355    -0.886272    12.139320    -3.904913    -1.594321    -3.444343    -0.946434    -8.478044    0.000000    0.000000    0.000000    
29.732954    75.852394    24.988037    -1.461456    1.371193    88.492477    -4.445182    -7.078713    3.988993    -0.093555    4.784539    4.268040    12.505545    6.936392    0.724702    -8.260453    2.993493    -1.299408    32.056892    -4.055983    2.011465    -30.684597    -7.661379    -14.305172    1.668867    4.534678    2.335950    -9.029034    4.716802    -2.745351    -11.913003    -1.881060    -11.139752    9.165725    -2.818367    3.259867    -4.512357    6.416306    1.517233    7.311992    6.193612    -4.439841    -2.680647    0.729815    0.284387    2.405784    2.484181    3.926670    -0.506794    -8.123216    2.543846    0.000000    0.000000    0.000000    -13.229742    3.939035    -0.855475    12.146852    -3.922113    -1.640596    -3.459079    -0.938542    -8.458621    0.000000    0.000000    0.000000    
29.732843    75.851761    24.987635    -1.462572    1.366169    88.496979    -4.444739    -7.103217    3.987856    -0.094582    4.844027    4.267900    12.514050    6.883438    0.729061    -8.286430    3.005299    -1.303793    32.061165    -4.065040    2.024340    -30.675877    -7.671605    -14.284229    1.623587    4.486488    2.324471    -9.017242    4.665813    -2.699315    -11.952349    -1.893872    -11.143712    9.200793    -2.812746    3.232374    -4.503503    6.392048    1.528619    7.320621    6.171551    -4.405051    -2.674579    0.734708    0.284339    2.400573    2.468828    3.944123    -0.280723    -8.171318    2.523146    0.000000    0.000000    0.000000    -13.227104    3.928308    -0.848706    12.148925    -3.899694    -1.588807    -3.479212    -0.948089    -8.519275    0.000000    0.000000    0.000000    
29.733652    75.850967    24.987879    -1.457211    1.362843    88.506996    -4.458283    -7.129798    3.996642    -0.079766    4.916873    4.278003    12.518253    6.841177    0.705565    -8.304459    2.983776    -1.337037    32.071995    -4.067975    2.011344    -30.687502    -7.707183    -14.283514    1.637077    4.470229    2.338039    -9.126264    4.651502    -2.697305    -11.963431    -1.873214    -11.175628    9.201087    -2.810714    3.208253    -4.472097    6.373585    1.548221    7.373451    6.149323    -4.437261    -2.669687    0.743971    0.273958    2.398531    2.464668    3.900789    -0.638655    -8.073725    2.577020    0.000000    0.000000    0.000000    -13.219181    3.937791    -0.859852    12.141619    -3.900712    -1.632494    -3.455565    -0.953153    -8.472920    0.000000    0.000000    0.000000    
29.733912    75.850143    24.988907    -1.454166    1.355143    88.519180    -4.466396    -7.145062    3.995728    -0.063156    4.976532    4.277516    12.514944    6.963208    0.670061    -8.321982    2.698696    -1.382506    32.052731    -4.077947    2.012171    -30.661091    -7.680275    -14.258215    1.657774    4.446698    2.338841    -9.183330    4.633224    -2.751464    -11.982950    -1.854002    -11.193189    9.218060    -2.859704    3.199231    -4.481027    6.381164    1.525677    7.542743    6.155031    -4.354639    -2.658152    0.741202    0.297389    2.397116    2.472856    3.871872    -0.496102    -8.132073    2.557406    0.000000    0.000000    0.000000    -13.205282    3.945644    -0.867338    12.132521    -3.902355    -1.641242    -3.475020    -0.952175    -8.468010    0.000000    0.000000    0.000000    
29.732725    75.849976    24.987946    -1.443985    1.350980    88.542625    -4.508639    -7.167026    3.998096    0.017297    5.063243    4.279889    12.516519    6.798514    0.692653    -8.388910    2.860518    -1.374249    31.982134    -4.131901    1.978412    -30.627790    -7.703887    -14.215905    1.679228    4.442346    2.339625    -9.137668    4.628701    -2.768686    -12.024698    -1.840283    -11.243581    9.215693    -2.850891    3.195569    -4.443435    6.327601    1.513440    7.543245    6.100962    -4.346865    -2.655215    0.750858    0.302125    2.396583    2.468108    3.849793    -0.473730    -8.136116    2.563614    0.000000    0.000000    0.000000    -13.198769    3.957110    -0.881214    12.131719    -3.892415    -1.627842    -3.496929    -0.956520    -8.491554    0.000000    0.000000    0.000000    
29.730568    75.848351    24.990328    -1.425646    1.339675    88.556374    -4.488198    -7.154245    3.995872    -0.024238    5.109733    4.277736    12.530293    6.753428    0.686908    -8.373345    2.879891    -1.383319    32.002384    -4.128747    1.968285    -30.611341    -7.697132    -14.191114    1.717699    4.465085    2.349560    -9.106406    4.650072    -2.772794    -11.966332    -1.836269    -11.237348    9.174639    -2.825841    3.171505    -4.406139    6.290711    1.488449    7.541093    6.061965    -4.357955    -2.631945    0.762236    0.304416    2.382484    2.480706    3.801970    -0.445755    -8.154316    2.587261    0.000000    0.000000    0.000000    -13.185539    3.975454    -0.850785    12.128824    -3.897383    -1.669166    -3.485358    -0.953309    -8.491620    0.000000    0.000000    0.000000    
